<svg id="Capa_1" enable-background="new 0 0 512 512" height="512" viewBox="0 0 512 512" width="512" xmlns="http://www.w3.org/2000/svg"><g><path d="m281.987 510.697c-8.545.862-17.215 1.303-25.987 1.303-141.385 0-256-114.615-256-256s114.615-256 256-256 256 114.615 256 256c0 28.031-4.505 55.01-12.831 80.252-.522 1.584-215.166 174.242-217.182 174.445z" fill="#ffc14f"/><path d="m361.372 36.582v46.343c0 2.209-1.791 4-4 4h-46.343c-3.564 0-5.348-4.309-2.828-6.828l46.343-46.343c2.52-2.52 6.828-.735 6.828 2.828zm-64.152 132.247 22.935 38.225c1.6 2.666-.321 6.058-3.43 6.058h-45.87c-3.109 0-5.03-3.392-3.43-6.058l22.935-38.225c1.554-2.589 5.307-2.589 6.86 0zm52.105-43.205 58.005-.891c2.554-.039 4.49 2.293 3.981 4.797l-9.952 48.944c-.635 3.125-4.493 4.286-6.748 2.031l-48.053-48.053c-2.499-2.499-.767-6.773 2.767-6.828zm-156.019 209.898.248-.248 6.586-32.931c.297-1.486 1.408-2.676 2.87-3.075l75.397-20.563 12.351-26.652c.66-1.424-9.101-10.883-9.101-10.883l-65.851-.544 33.271-58.225c.585-1.024.688-2.254.282-3.362l-5.787-15.783 53.322-69.417c1.671-1.643 1.577-4.364-.202-5.889l-43.418-37.215h-238.274c-8.284 0-15 6.716-15 15v200.4c0 8.284 6.716 15 15 15h124.831l-32.566 8.881c-1.462.399-2.573 1.589-2.87 3.075l-6.586 32.931-.248.248 184.426 184.426c18.839-1.9 37.076-5.842 54.485-11.602 7.035-2.328 9.201-11.206 3.962-16.446z" fill="#ffa90b"/><path d="m226.935 225.749c1.314 1.995-.116 4.651-2.505 4.651h-209.43c-8.284 0-15-6.716-15-15v-200.4c0-8.284 6.716-15 15-15h238.275l43.418 37.215c1.779 1.525 1.872 4.246.202 5.889l-32 31.476-2.798.026-8.841 8.139-1.161 4.425-13.095 12.88 10.36 28.254c.406 1.107.303 2.337-.283 3.362l-39.077 68.384z" fill="#f44545"/><path d="m58.404 230.4h-43.404c-8.284 0-15-6.716-15-15v-200.4c0-8.284 6.716-15 15-15h43.404c-8.284 0-15 6.716-15 15v200.4c0 8.284 6.716 15 15 15z" fill="#d63030"/><path d="m336.251 499.169-180.36-180.36.248-.248 6.586-32.931c.297-1.486 1.408-2.676 2.87-3.075l75.397-20.562 12.351-26.652c.66-1.424 2.092-2.331 3.662-2.318l15.788.13 2.93 3.038 8.04.066 6.984-2.956 49.24.407-3.891-50.578c-.285-3.703 4.191-5.761 6.817-3.135l156.256 156.256c-11.188 33.918-29.274 64.701-52.597 90.687l-19.634 19.633c-25.986 23.324-56.768 41.41-90.687 52.598z" fill="#fb5858"/><path d="m379.532 18.423v46.343c0 2.209-1.791 4-4 4h-46.343c-3.564 0-5.348-4.309-2.828-6.828l46.343-46.343c2.519-2.52 6.828-.736 6.828 2.828z" fill="#fb5858"/><path d="m155.892 318.809.248-.248 6.586-32.931c.297-1.486 1.408-2.676 2.87-3.075l75.397-20.562 12.351-26.652c.66-1.424 2.092-2.331 3.662-2.318l15.788.131 2.93 3.038 8.04.066 6.984-2.956 49.24.407-3.891-50.578c-.285-3.703 4.191-5.761 6.817-3.135l12.099 12.099 4.72 61.359-85.56-.707-13.435 28.992-77.782 21.213-7.071 35.355-.248.248zm127.538-173.092 22.935 38.225c1.6 2.666-.321 6.058-3.43 6.058h-45.87c-3.109 0-5.03-3.392-3.43-6.058l22.935-38.225c1.554-2.59 5.306-2.59 6.86 0zm101.807-20.093 58.005-.891c2.554-.039 4.49 2.293 3.981 4.797l-9.952 48.944c-.635 3.125-4.493 4.286-6.748 2.031l-48.053-48.053c-2.499-2.499-.767-6.773 2.767-6.828z" fill="#f44545"/><path d="m123.044 66.207.912 94.254c0 4.548-2.443 8.203-6.225 9.385-3.666 1.149-7.577-.346-9.968-3.798l-52.157-75.527v73.299c0 4.143-3.358 7.5-7.5 7.5s-7.5-3.357-7.5-7.5v-97.358c0-3.282 2.134-6.184 5.268-7.16s6.539.197 8.403 2.898l54.491 78.907-.723-74.756c-.04-4.142 3.285-7.532 7.427-7.572h.074c4.109 0 7.459 3.31 7.498 7.428zm139.921-1.383c-.805-4.063-4.753-6.698-8.813-5.902-4.063.804-6.706 4.749-5.902 8.813l3.844 19.436 12.8-12.59zm-45.818 98.996c0-4.143-3.358-7.5-7.5-7.5h-33.225v-33.325h30.222c4.142 0 7.5-3.357 7.5-7.5s-3.358-7.5-7.5-7.5h-30.222v-33.325h33.225c4.142 0 7.5-3.357 7.5-7.5s-3.358-7.5-7.5-7.5h-40.725c-4.142 0-7.5 3.357-7.5 7.5v96.65c0 4.143 3.358 7.5 7.5 7.5h40.725c4.142 0 7.5-3.357 7.5-7.5zm153.734 127.728c-2.301-3.444-6.957-4.372-10.402-2.07l-63.582 42.475 37.145-70.22c1.937-3.662.536-8.199-3.123-10.137-2.559-1.354-5.546-1.078-7.774.46l-69.501 36.646 37.104-55.402-17.954-.148-43.474 64.913c-.204.304-.385.623-.542.954-1.762 3.705-.997 8.127 1.901 11.025l.048.049c2.938 2.896 7.398 3.618 11.099 1.794.062-.03.124-.062.185-.093l67.369-35.521-35.606 67.311c-.05.094-.097.188-.142.284-1.764 3.706-1 8.13 1.899 11.029l.045.045c2.937 2.898 7.398 3.622 11.1 1.799.295-.145.581-.31.855-.493l81.28-54.298c3.444-2.3 4.371-6.957 2.07-10.402zm57.727 88.882c-4.117.356-7.744-2.685-8.116-6.795-.037-.36-2.052-18.998-17.044-27.047-5.647-3.033-11.645-2.876-16.044.418-3.594 2.69-5.273 6.82-4.558 11.131 1.088 2.798 5.808 14.788 11.501 27.134 9.769 21.19 2.805 36.021-6.971 42.834-12.98 9.047-32.358 6.28-45.075-6.437-10.72-10.721-16.701-25.648-15.999-39.932.204-4.137 3.722-7.325 7.86-7.122 4.135.203 7.326 3.721 7.122 7.859-.498 10.124 3.848 20.812 11.624 28.588 8.721 8.721 19.849 8.949 25.892 4.737 6.303-4.393 7.006-13.231 1.926-24.248-6.688-14.502-11.904-28.087-12.123-28.658-.142-.37-.253-.75-.335-1.138-2.15-10.207 1.738-20.459 10.145-26.755 9.057-6.784 21.369-7.407 32.133-1.627 22.306 11.981 24.793 37.843 24.887 38.938.358 4.127-2.698 7.762-6.825 8.12z" fill="#fff"/></g></svg>