<svg id="Capa_1" enable-background="new 0 0 512 512" height="512" viewBox="0 0 512 512" width="512" xmlns="http://www.w3.org/2000/svg"><g><path d="m497 16h-241-241c-8.291 0-15 6.709-15 15v315l30 30h226 226l30-30v-315c0-8.291-6.709-15-15-15z" fill="#ff7b4a"/><path d="m512 346v-315c0-8.291-6.709-15-15-15h-241v360h226z" fill="#ff435b"/><path d="m256 346h-256v135c0 8.291 6.709 15 15 15h241 241c8.291 0 15-6.709 15-15v-135z" fill="#6aa9ff"/><path d="m512 481v-135h-256v150h241c8.291 0 15-6.709 15-15z" fill="#4895ff"/><path d="m436 406h-180-181c-8.291 0-15 6.709-15 15s6.709 15 15 15h181 180c8.291 0 15-6.709 15-15s-6.709-15-15-15z" fill="#47568c"/><path d="m451 421c0-8.291-6.709-15-15-15h-180v30h180c8.291 0 15-6.709 15-15z" fill="#29376d"/><path d="m353.72 168.139-97.72-58.633-52.28-31.368c-4.644-2.783-10.415-2.856-15.117-.19s-7.603 7.647-7.603 13.052v180c0 5.405 2.9 10.386 7.603 13.052 4.698 2.664 10.472 2.591 15.117-.19l52.28-31.368 97.72-58.632c4.512-2.71 7.28-7.588 7.28-12.861s-2.769-10.152-7.28-12.862z" fill="#edf5ff"/><g fill="#d5e8fe"><path d="m361 181c0-5.273-2.769-10.151-7.28-12.861l-97.72-58.633v142.987l97.72-58.632c4.511-2.71 7.28-7.588 7.28-12.861z"/><path d="m376 466c-8.291 0-15-6.709-15-15v-60c0-8.291 6.709-15 15-15s15 6.709 15 15v60c0 8.291-6.709 15-15 15z"/></g></g></svg>